<svg width="1600" height="560" viewBox="0 0 1600 560" fill="none" xmlns="http://www.w3.org/2000/svg">
<defs>
  <linearGradient id="bg" x1="0" y1="0" x2="1600" y2="560"><stop stop-color="#07080D"/><stop offset=".55" stop-color="#0C0A18"/><stop offset="1" stop-color="#071216"/></linearGradient>
  <linearGradient id="g1" x1="250" y1="80" x2="1360" y2="520"><stop stop-color="#7D5CFF"/><stop offset=".35" stop-color="#C34CFF"/><stop offset=".7" stop-color="#16B8FF"/><stop offset="1" stop-color="#43F0C0"/></linearGradient>
  <radialGradient id="glow1" cx="0" cy="0" r="1" gradientTransform="translate(420 140) rotate(32) scale(520 330)"><stop stop-color="#8B5CFF" stop-opacity=".28"/><stop offset="1" stop-color="#8B5CFF" stop-opacity="0"/></radialGradient>
  <radialGradient id="glow2" cx="0" cy="0" r="1" gradientTransform="translate(1290 420) rotate(-145) scale(460 280)"><stop stop-color="#2CF3C4" stop-opacity=".16"/><stop offset="1" stop-color="#2CF3C4" stop-opacity="0"/></radialGradient>
  <filter id="blur"><feGaussianBlur stdDeviation="28"/></filter>
</defs>
<rect width="1600" height="560" rx="38" fill="url(#bg)"/>
<rect x="1" y="1" width="1598" height="558" rx="37" stroke="url(#g1)" stroke-opacity=".5" stroke-width="2"/>
<ellipse cx="425" cy="140" rx="520" ry="330" fill="url(#glow1)"/><ellipse cx="1290" cy="420" rx="460" ry="280" fill="url(#glow2)"/>
<path d="M102 458C370 358 510 496 744 410C980 323 1082 116 1490 197" stroke="url(#g1)" stroke-width="2" opacity=".42"/>
<path d="M102 488C342 405 538 515 781 432C1023 348 1130 177 1490 240" stroke="url(#g1)" stroke-width="1" opacity=".18"/>
<g transform="translate(112 122)">
<rect x="0" y="0" width="126" height="126" rx="32" fill="#0F1018" stroke="url(#g1)" stroke-width="3"/>
<path d="M26 35H100V91H26V35Z" stroke="url(#g1)" stroke-width="7"/><path d="M26 53H47M79 53H100M26 73H47M79 73H100M47 35V91M79 35V91" stroke="url(#g1)" stroke-width="5" stroke-linecap="round"/><path d="M58 49L84 63L58 77V49Z" fill="url(#g1)"/>
</g>
<text x="278" y="183" fill="#FFFFFF" font-size="70" font-family="Inter,Segoe UI,Arial" font-weight="760" letter-spacing="-2">GraviStudio</text>
<text x="282" y="232" fill="#999EB0" font-size="23" font-family="Inter,Segoe UI,Arial" font-weight="500">Antigravity-powered AI video studio · local-first · free-first</text>
<g font-family="Inter,Segoe UI,Arial" font-size="17" font-weight="650">
<rect x="282" y="284" width="196" height="46" rx="14" fill="#141221" stroke="#3B315F"/><text x="309" y="314" fill="#C4B5FF">PRODUCT VIDEO</text>
<rect x="492" y="284" width="210" height="46" rx="14" fill="#101A21" stroke="#204A57"/><text x="519" y="314" fill="#78E3F8">MOTION GRAPHICS</text>
<rect x="716" y="284" width="178" height="46" rx="14" fill="#16131D" stroke="#462D54"/><text x="742" y="314" fill="#E1A1FF">AUTO SHORTS</text>
<rect x="908" y="284" width="190" height="46" rx="14" fill="#0E1C1B" stroke="#22534A"/><text x="935" y="314" fill="#72EBC5">AI DIRECTOR</text>
</g>
<text x="282" y="390" fill="#F0F1F6" font-size="28" font-family="Inter,Segoe UI,Arial" font-weight="650">One dashboard. Multiple open video engines.</text>
<text x="282" y="431" fill="#73798B" font-size="20" font-family="Inter,Segoe UI,Arial">Initialize → route → source assets → render → verify → resume from checkpoints.</text>
<g transform="translate(1210 110) rotate(6)"><rect width="245" height="316" rx="28" fill="#10121A" stroke="#2C3040"/><rect x="22" y="24" width="201" height="122" rx="18" fill="#17152A"/><path d="M60 103C100 58 126 135 171 80" stroke="url(#g1)" stroke-width="12" stroke-linecap="round"/><rect x="22" y="164" width="150" height="16" rx="8" fill="#252839"/><rect x="22" y="194" width="187" height="11" rx="6" fill="#202330"/><rect x="22" y="218" width="166" height="11" rx="6" fill="#202330"/><rect x="22" y="258" width="103" height="34" rx="10" fill="url(#g1)"/></g>
</svg>
