<svg width="1600" height="960" viewBox="0 0 1600 960" xmlns="http://www.w3.org/2000/svg"><rect width="1600" height="960" fill="#08090E"/><rect width="232" height="960" fill="#090A0F"/><line x1="232" x2="232" y2="960" stroke="#22252F"/>
<rect x="22" y="24" width="38" height="38" rx="11" fill="#7B5BFF"/><text x="72" y="43" fill="#F5F6FA" font-family="Inter,Segoe UI,Arial" font-size="16" font-weight="700">GraviStudio</text><text x="72" y="59" fill="#696F80" font-family="Inter,Segoe UI,Arial" font-size="10">Antigravity Video Studio</text>
<rect x="16" y="86" width="200" height="40" rx="10" fill="#191A24"/><text x="51" y="112" fill="#F2F3F7" font-family="Inter,Segoe UI,Arial" font-size="14">Studio</text>
<rect x="16" y="134" width="200" height="40" rx="10" fill="#0A0B10"/><text x="51" y="160" fill="#8A8E9A" font-family="Inter,Segoe UI,Arial" font-size="14">Skills &amp; Engines</text>
<rect x="22" y="880" width="142" height="28" rx="8" fill="#171427" stroke="#3B2D67"/><text x="43" y="899" fill="#C8B9FF" font-family="Inter,Segoe UI,Arial" font-size="9" font-weight="800">FREE MODE DEFAULT</text><text x="22" y="930" fill="#5E6372" font-family="Inter,Segoe UI,Arial" font-size="10">Local-first orchestration</text>
<text x="275" y="64" fill="#F4F5F9" font-family="Inter,Segoe UI,Arial" font-size="30" font-weight="760">AI Video Studio</text><text x="275" y="91" fill="#777D8D" font-family="Inter,Segoe UI,Arial" font-size="13">Choose what you want to make. GraviStudio routes the job to the right Antigravity skill.</text>
<rect x="1280" y="32" width="92" height="38" rx="10" fill="#11131A" stroke="#2A2D38"/><text x="1308" y="56" fill="#B0B4C0" font-family="Inter,Segoe UI,Arial" font-size="12" font-weight="650">Verify</text><rect x="1384" y="32" width="154" height="38" rx="10" fill="#7153F4"/><text x="1410" y="56" fill="#FFFFFF" font-family="Inter,Segoe UI,Arial" font-size="12" font-weight="700">Initialize Studio</text><rect x="275" y="120" width="294" height="96" rx="14" fill="#101118" stroke="#222631"/><text x="293" y="147" fill="#6C7282" font-family="Inter,Segoe UI,Arial" font-size="10" font-weight="700">STUDIO HEALTH</text><text x="293" y="178" fill="#F0F2F7" font-family="Inter,Segoe UI,Arial" font-size="20" font-weight="700">Ready</text><text x="293" y="198" fill="#69DDA9" font-family="Inter,Segoe UI,Arial" font-size="9">READY</text><rect x="589" y="120" width="294" height="96" rx="14" fill="#101118" stroke="#222631"/><text x="607" y="147" fill="#6C7282" font-family="Inter,Segoe UI,Arial" font-size="10" font-weight="700">MODULES READY</text><text x="607" y="178" fill="#F0F2F7" font-family="Inter,Segoe UI,Arial" font-size="20" font-weight="700">7/10</text><text x="607" y="198" fill="#69DDA9" font-family="Inter,Segoe UI,Arial" font-size="9">Core + optional</text><rect x="903" y="120" width="294" height="96" rx="14" fill="#101118" stroke="#222631"/><text x="921" y="147" fill="#6C7282" font-family="Inter,Segoe UI,Arial" font-size="10" font-weight="700">AGENT RUNTIME</text><text x="921" y="178" fill="#F0F2F7" font-family="Inter,Segoe UI,Arial" font-size="20" font-weight="700">Antigravity</text><text x="921" y="198" fill="#69DDA9" font-family="Inter,Segoe UI,Arial" font-size="9">Signed-in account</text><rect x="1217" y="120" width="294" height="96" rx="14" fill="#101118" stroke="#222631"/><text x="1235" y="147" fill="#6C7282" font-family="Inter,Segoe UI,Arial" font-size="10" font-weight="700">COST POLICY</text><text x="1235" y="178" fill="#F0F2F7" font-family="Inter,Segoe UI,Arial" font-size="20" font-weight="700">Free-first</text><text x="1235" y="198" fill="#69DDA9" font-family="Inter,Segoe UI,Arial" font-size="9">No paid media APIs</text><text x="275" y="261" fill="#F3F4F8" font-family="Inter,Segoe UI,Arial" font-size="16" font-weight="700">Create a video</text><text x="275" y="284" fill="#6F7585" font-family="Inter,Segoe UI,Arial" font-size="12">Every workspace gets its own assets, checkpoint and output folder.</text><rect x="275" y="310" width="294" height="170" rx="14" fill="#101118" stroke="#252834"/><rect x="291" y="326" width="38" height="38" rx="10" fill="#18152A" stroke="#33265D"/><circle cx="310" cy="345" r="7" fill="#7B5BFF"/><text x="291" y="388" fill="#EEF0F6" font-family="Inter,Segoe UI,Arial" font-size="14" font-weight="700">Product Video</text><text x="291" y="410" fill="#727787" font-family="Inter,Segoe UI,Arial" font-size="10">Launch videos for apps, websites and reposit</text><text x="291" y="426" fill="#727787" font-family="Inter,Segoe UI,Arial" font-size="10">ories.</text><line x1="291" x2="553" y1="446" y2="446" stroke="#20232C"/><text x="291" y="466" fill="#636979" font-family="Inter,Segoe UI,Arial" font-size="8">ENGINE</text><text x="553" y="466" text-anchor="end" fill="#A2A6B3" font-family="Inter,Segoe UI,Arial" font-size="8" font-weight="700">BRAG</text><rect x="589" y="310" width="294" height="170" rx="14" fill="#101118" stroke="#252834"/><rect x="605" y="326" width="38" height="38" rx="10" fill="#18152A" stroke="#33265D"/><circle cx="624" cy="345" r="7" fill="#A950FF"/><text x="605" y="388" fill="#EEF0F6" font-family="Inter,Segoe UI,Arial" font-size="14" font-weight="700">Motion Graphics</text><text x="605" y="410" fill="#727787" font-family="Inter,Segoe UI,Arial" font-size="10">Kinetic typography, UI animation, charts and</text><text x="605" y="426" fill="#727787" font-family="Inter,Segoe UI,Arial" font-size="10"> logos.</text><line x1="605" x2="867" y1="446" y2="446" stroke="#20232C"/><text x="605" y="466" fill="#636979" font-family="Inter,Segoe UI,Arial" font-size="8">ENGINE</text><text x="867" y="466" text-anchor="end" fill="#A2A6B3" font-family="Inter,Segoe UI,Arial" font-size="8" font-weight="700">HYPERFRAMES</text><rect x="903" y="310" width="294" height="170" rx="14" fill="#101118" stroke="#252834"/><rect x="919" y="326" width="38" height="38" rx="10" fill="#18152A" stroke="#33265D"/><circle cx="938" cy="345" r="7" fill="#3E88FF"/><text x="919" y="388" fill="#EEF0F6" font-family="Inter,Segoe UI,Arial" font-size="14" font-weight="700">Website → Video</text><text x="919" y="410" fill="#727787" font-family="Inter,Segoe UI,Arial" font-size="10">Turn a website or app experience into a poli</text><text x="919" y="426" fill="#727787" font-family="Inter,Segoe UI,Arial" font-size="10">shed promo.</text><line x1="919" x2="1181" y1="446" y2="446" stroke="#20232C"/><text x="919" y="466" fill="#636979" font-family="Inter,Segoe UI,Arial" font-size="8">ENGINE</text><text x="1181" y="466" text-anchor="end" fill="#A2A6B3" font-family="Inter,Segoe UI,Arial" font-size="8" font-weight="700">HYPERFRAMES</text><rect x="1217" y="310" width="294" height="170" rx="14" fill="#101118" stroke="#252834"/><rect x="1233" y="326" width="38" height="38" rx="10" fill="#18152A" stroke="#33265D"/><circle cx="1252" cy="345" r="7" fill="#9B7AFF"/><text x="1233" y="388" fill="#EEF0F6" font-family="Inter,Segoe UI,Arial" font-size="14" font-weight="700">Auto Shorts</text><text x="1233" y="410" fill="#727787" font-family="Inter,Segoe UI,Arial" font-size="10">Long video or YouTube source into ranked soc</text><text x="1233" y="426" fill="#727787" font-family="Inter,Segoe UI,Arial" font-size="10">ial clips.</text><line x1="1233" x2="1495" y1="446" y2="446" stroke="#20232C"/><text x="1233" y="466" fill="#636979" font-family="Inter,Segoe UI,Arial" font-size="8">ENGINE</text><text x="1495" y="466" text-anchor="end" fill="#A2A6B3" font-family="Inter,Segoe UI,Arial" font-size="8" font-weight="700">AUTOCLIP</text><rect x="275" y="500" width="294" height="170" rx="14" fill="#101118" stroke="#252834"/><rect x="291" y="516" width="38" height="38" rx="10" fill="#18152A" stroke="#33265D"/><circle cx="310" cy="535" r="7" fill="#BB5BFF"/><text x="291" y="578" fill="#EEF0F6" font-family="Inter,Segoe UI,Arial" font-size="14" font-weight="700">AI Director</text><text x="291" y="600" fill="#727787" font-family="Inter,Segoe UI,Arial" font-size="10">Long-form documentary, explainer and story w</text><text x="291" y="616" fill="#727787" font-family="Inter,Segoe UI,Arial" font-size="10">orkflows.</text><line x1="291" x2="553" y1="636" y2="636" stroke="#20232C"/><text x="291" y="656" fill="#636979" font-family="Inter,Segoe UI,Arial" font-size="8">ENGINE</text><text x="553" y="656" text-anchor="end" fill="#A2A6B3" font-family="Inter,Segoe UI,Arial" font-size="8" font-weight="700">OPENMONTAGE</text><rect x="589" y="500" width="294" height="170" rx="14" fill="#101118" stroke="#252834"/><rect x="605" y="516" width="38" height="38" rx="10" fill="#18152A" stroke="#33265D"/><circle cx="624" cy="535" r="7" fill="#845DFF"/><text x="605" y="578" fill="#EEF0F6" font-family="Inter,Segoe UI,Arial" font-size="14" font-weight="700">Live Avatar</text><text x="605" y="600" fill="#727787" font-family="Inter,Segoe UI,Arial" font-size="10">Experimental portrait animation using Person</text><text x="605" y="616" fill="#727787" font-family="Inter,Segoe UI,Arial" font-size="10">aLive.</text><line x1="605" x2="867" y1="636" y2="636" stroke="#20232C"/><text x="605" y="656" fill="#636979" font-family="Inter,Segoe UI,Arial" font-size="8">ENGINE</text><text x="867" y="656" text-anchor="end" fill="#A2A6B3" font-family="Inter,Segoe UI,Arial" font-size="8" font-weight="700">PERSONALIVE</text><rect x="903" y="500" width="294" height="170" rx="14" fill="#101118" stroke="#252834"/><rect x="919" y="516" width="38" height="38" rx="10" fill="#18152A" stroke="#33265D"/><circle cx="938" cy="535" r="7" fill="#2CC7EA"/><text x="919" y="578" fill="#EEF0F6" font-family="Inter,Segoe UI,Arial" font-size="14" font-weight="700">Video Editor</text><text x="919" y="600" fill="#727787" font-family="Inter,Segoe UI,Arial" font-size="10">Edit, combine, caption, resize and deliver f</text><text x="919" y="616" fill="#727787" font-family="Inter,Segoe UI,Arial" font-size="10">ootage.</text><line x1="919" x2="1181" y1="636" y2="636" stroke="#20232C"/><text x="919" y="656" fill="#636979" font-family="Inter,Segoe UI,Arial" font-size="8">ENGINE</text><text x="1181" y="656" text-anchor="end" fill="#A2A6B3" font-family="Inter,Segoe UI,Arial" font-size="8" font-weight="700">FFMPEG</text><rect x="1217" y="500" width="294" height="170" rx="14" fill="#101118" stroke="#252834"/><rect x="1233" y="516" width="38" height="38" rx="10" fill="#18152A" stroke="#33265D"/><circle cx="1252" cy="535" r="7" fill="#37E0B3"/><text x="1233" y="578" fill="#EEF0F6" font-family="Inter,Segoe UI,Arial" font-size="14" font-weight="700">Reel Maker</text><text x="1233" y="600" fill="#727787" font-family="Inter,Segoe UI,Arial" font-size="10">Combine supplied or sourced assets into soci</text><text x="1233" y="616" fill="#727787" font-family="Inter,Segoe UI,Arial" font-size="10">al video.</text><line x1="1233" x2="1495" y1="636" y2="636" stroke="#20232C"/><text x="1233" y="656" fill="#636979" font-family="Inter,Segoe UI,Arial" font-size="8">ENGINE</text><text x="1495" y="656" text-anchor="end" fill="#A2A6B3" font-family="Inter,Segoe UI,Arial" font-size="8" font-weight="700">HYPERFRAMES</text><text x="275" y="730" fill="#F3F4F8" font-family="Inter,Segoe UI,Arial" font-size="16" font-weight="700">Recent projects</text><rect x="275" y="755" width="1256" height="120" rx="14" fill="#0F1016" stroke="#222631"/><text x="903" y="810" text-anchor="middle" fill="#999EAC" font-family="Inter,Segoe UI,Arial" font-size="12" font-weight="700">No video projects yet</text><text x="903" y="834" text-anchor="middle" fill="#606675" font-family="Inter,Segoe UI,Arial" font-size="10">Choose a category above to create the first one.</text></svg>